<svg width="57" height="55" viewBox="0 0 57 55" fill="none" xmlns="http://www.w3.org/2000/svg">
<g opacity="0.5">
<rect x="0.511719" width="56" height="54.4141" rx="3.65976" fill="#15151B"/>
<path d="M29.3141 22.1682C30.8666 22.1682 32.2365 22.5563 33.4237 23.3326C34.6337 24.1088 35.5926 25.1819 36.3004 26.5518C37.0081 27.8988 37.362 29.4627 37.362 31.2435C37.362 32.9787 37.0081 34.5426 36.3004 35.9353C35.5926 37.328 34.6337 38.4239 33.4237 39.223C32.2136 40.0221 30.8552 40.4216 29.3483 40.4216C28.5492 40.4216 27.7844 40.2961 27.0538 40.0449C26.346 39.7938 25.6953 39.4627 25.1017 39.0518C24.5081 38.618 23.983 38.1157 23.5264 37.5449C23.0698 36.9741 22.7045 36.3577 22.4305 35.6956L23.0469 35.2504V39.1203C23.0469 39.4171 22.9442 39.6682 22.7387 39.8737C22.5561 40.0563 22.3163 40.1477 22.0195 40.1477C21.7227 40.1477 21.4716 40.0563 21.2661 39.8737C21.0835 39.6682 20.9921 39.4171 20.9921 39.1203V15.7983C20.9921 15.5015 21.0835 15.2618 21.2661 15.0791C21.4488 14.8737 21.6999 14.7709 22.0195 14.7709C22.3163 14.7709 22.5561 14.8737 22.7387 15.0791C22.9442 15.2618 23.0469 15.5015 23.0469 15.7983V27.2709L22.5675 26.997C22.7958 26.2892 23.1269 25.6499 23.5606 25.0791C24.0173 24.4855 24.5424 23.9718 25.136 23.538C25.7296 23.1043 26.3803 22.7732 27.088 22.5449C27.7958 22.2938 28.5378 22.1682 29.3141 22.1682ZM29.1428 24.086C27.91 24.086 26.8255 24.3942 25.8894 25.0107C24.9533 25.6271 24.2113 26.4718 23.6634 27.5449C23.1383 28.618 22.8757 29.8508 22.8757 31.2435C22.8757 32.6134 23.1383 33.8577 23.6634 34.9764C24.2113 36.0723 24.9533 36.9399 25.8894 37.5792C26.8255 38.1956 27.91 38.5038 29.1428 38.5038C30.3529 38.5038 31.4145 38.1842 32.3278 37.5449C33.2639 36.9056 34.0059 36.0381 34.5538 34.9422C35.1018 33.8234 35.3757 32.5906 35.3757 31.2435C35.3757 29.8508 35.1018 28.618 34.5538 27.5449C34.0059 26.4718 33.2639 25.6271 32.3278 25.0107C31.4145 24.3942 30.3529 24.086 29.1428 24.086Z" fill="white"/>
</g>
</svg>
